<svg width="23" height="24" viewBox="0 0 23 24" fill="none" xmlns="http://www.w3.org/2000/svg">
<path fill-rule="evenodd" clip-rule="evenodd" d="M11.1583 1.99989C9.43856 1.99989 8.04467 3.33989 8.04467 4.99989H14.272C14.272 3.33989 12.8781 1.99989 11.1583 1.99989ZM14.272 7.00011V8.00011C14.272 8.55011 14.737 9.00011 15.3099 9.00011C15.8828 9.00011 16.3478 8.55011 16.3478 8.00011V7.00011H17.6161C18.1423 7.00011 18.5845 7.38011 18.6467 7.88011L20.2337 20.8801C20.3063 21.4801 19.8247 22.0001 19.203 22.0001H3.11364C2.49194 22.0001 2.01036 21.4801 2.08301 20.8801L3.66995 7.88011C3.73222 7.38011 4.17436 7.00011 4.70058 7.00011H5.96888V8.00011C5.96888 8.55011 6.43386 9.00011 7.00677 9.00011C7.57969 9.00011 8.04467 8.55011 8.04467 8.00011V7.00011H14.272ZM5.9689 5H4.7006C3.12196 5 1.79346 6.14 1.60872 7.65L0.0217786 20.65C-0.196179 22.43 1.24961 24 3.11366 24H19.2031C21.0671 24 22.5129 22.43 22.295 20.65L20.708 7.65C20.5233 6.14 19.1948 5 17.6161 5H16.3478C16.3478 2.24 14.024 0 11.1584 0C8.29171 0 5.9689 2.24 5.9689 5Z" fill="#3D3D3D"/>
</svg>
