<svg width="6" height="6" viewBox="0 0 6 6" fill="none" xmlns="http://www.w3.org/2000/svg">
<path d="M5.9719 2.81426C5.95478 2.76275 5.93299 2.71592 5.90653 2.67066C5.82871 2.52081 5.69797 2.40375 5.52676 2.34287C5.52365 2.34287 5.52209 2.34131 5.51898 2.33975C5.50808 2.33663 5.49719 2.33039 5.48629 2.32726C5.31509 2.28044 5.14544 2.23049 4.97734 2.1743C4.90731 2.15089 4.83727 2.12591 4.76723 2.09938C4.75322 2.09469 4.73921 2.08845 4.7252 2.08221C4.71431 2.07909 4.70341 2.0744 4.69408 2.06972C4.68318 2.06504 4.67229 2.06035 4.65983 2.05723C4.66917 2.06035 4.67384 2.06192 4.68318 2.06504C4.57579 2.01509 4.47151 1.96046 4.3719 1.89646C4.35478 1.88554 4.33766 1.87305 4.32054 1.86056C4.28629 1.83091 4.25205 1.80125 4.21937 1.76847C4.18668 1.73569 4.15711 1.69979 4.12754 1.66701C4.1182 1.65453 4.11042 1.64204 4.10108 1.62799C4.0326 1.52498 3.97501 1.41571 3.92365 1.30333C3.92676 1.31114 3.92832 1.31738 3.93143 1.32674C3.92209 1.29709 3.90808 1.26743 3.89719 1.23777C3.87073 1.1691 3.84583 1.09886 3.82248 1.02862C3.76334 0.853799 3.71198 0.67586 3.66217 0.49792C3.47851 -0.163891 2.50731 -0.165451 2.32365 0.49792C2.27696 0.669616 2.22715 0.839751 2.17112 1.00833C2.14777 1.07857 2.12287 1.15037 2.09641 1.21904C2.09174 1.23309 2.08552 1.24714 2.07929 1.26119C2.07618 1.27211 2.07151 1.28304 2.06684 1.2924C2.06217 1.30333 2.0575 1.31582 2.05439 1.32674C2.0575 1.31738 2.05906 1.3127 2.06217 1.30333C2.01236 1.41103 1.95789 1.51561 1.89408 1.61551C1.88318 1.63268 1.87073 1.64985 1.85828 1.66701C1.82871 1.70135 1.79913 1.73569 1.76645 1.76847C1.73376 1.80125 1.69797 1.83091 1.66373 1.86212C1.65127 1.87149 1.63882 1.87929 1.62482 1.88866C1.52209 1.95734 1.41314 2.01509 1.30108 2.0666C1.30886 2.06348 1.31509 2.06192 1.32443 2.05879C1.29485 2.06816 1.26528 2.08221 1.23571 2.09469C1.16723 2.12123 1.09719 2.1462 1.02715 2.16962C0.852831 2.22893 0.675399 2.28044 0.497967 2.33039C-0.161955 2.51457 -0.163512 3.48855 0.497967 3.67274C0.669173 3.71956 0.838823 3.76951 1.00692 3.8257C1.07696 3.84912 1.14699 3.87409 1.21703 3.90063C1.23104 3.90531 1.24505 3.91155 1.25906 3.9178C1.26995 3.92092 1.28085 3.9256 1.29018 3.93028C1.30108 3.93496 1.31197 3.93965 1.32443 3.94277C1.31509 3.93965 1.31042 3.93809 1.30108 3.93496C1.40847 3.98491 1.51275 4.03954 1.61236 4.10354C1.62948 4.11447 1.64661 4.12695 1.66373 4.13944C1.69797 4.1691 1.73221 4.19875 1.76489 4.23153C1.79758 4.26431 1.82715 4.30021 1.85828 4.33455C1.86762 4.34704 1.8754 4.35952 1.88474 4.37357C1.95322 4.47659 2.01081 4.58585 2.06217 4.69823C2.05906 4.69043 2.0575 4.68418 2.05439 4.67482C2.06373 4.70448 2.07773 4.73413 2.08863 4.76379C2.11509 4.83247 2.13999 4.90271 2.16334 4.97295C2.22248 5.14776 2.27384 5.3257 2.32365 5.50364C2.50731 6.16545 3.47851 6.16701 3.66217 5.50364C3.70886 5.33195 3.75867 5.16181 3.8147 4.99324C3.83804 4.923 3.86295 4.8512 3.88941 4.78252C3.89408 4.76847 3.9003 4.75442 3.90653 4.74038C3.90964 4.72945 3.91431 4.71852 3.91898 4.70916C3.92365 4.69823 3.92832 4.68575 3.93143 4.67482C3.92832 4.68418 3.92676 4.68887 3.92365 4.69823C3.97345 4.59053 4.02793 4.48595 4.09174 4.38606C4.10264 4.36889 4.11509 4.35172 4.12754 4.33455C4.15711 4.30021 4.18668 4.26587 4.21937 4.23309C4.25205 4.20031 4.28785 4.17066 4.32054 4.141C4.33299 4.13164 4.34544 4.12383 4.35945 4.11447C4.46217 4.04579 4.57112 3.98803 4.68318 3.93653C4.6754 3.93965 4.66917 3.94121 4.65983 3.94433C4.68941 3.93497 4.71898 3.92092 4.74855 3.90843C4.81703 3.8819 4.88707 3.85692 4.95711 3.83351C5.13143 3.77419 5.30886 3.72269 5.48629 3.67274C5.55633 3.65401 5.6217 3.62123 5.6824 3.58065C5.82404 3.49168 5.93454 3.35432 5.9719 3.18731V3.18418C6.00769 3.06556 6.01081 2.93913 5.9719 2.81738V2.81426Z" fill="#E88697"/>
</svg>
