<svg width="40" height="30" viewBox="0 0 40 30" fill="none" xmlns="http://www.w3.org/2000/svg">
<path d="M29.3471 5.06742C29.2447 4.92792 29.1319 4.85442 29.0131 4.84692C28.9122 4.84992 28.8068 4.88592 28.7132 4.98642C28.3317 5.3914 27.9755 6.01838 27.732 6.70836C27.689 6.83435 27.7291 6.97685 27.8537 7.07585C28.5885 7.44033 28.8943 7.74182 29.7509 8.63729L29.7598 8.64479C29.8058 8.68229 29.8592 8.70029 29.9142 8.70029C29.9542 8.70029 29.9958 8.68979 30.0344 8.66879C30.122 8.61779 30.171 8.5203 30.1561 8.4183C29.9824 7.14934 29.6648 5.5099 29.3456 5.06742H29.3471Z" fill="#3D3D3D"/>
<path d="M11.4332 6.70616C11.1912 6.01619 10.8334 5.38921 10.4519 4.98422C10.3599 4.88523 10.2634 4.84923 10.1536 4.84473C10.0348 4.85223 9.92348 4.92572 9.81957 5.06672C9.50041 5.5077 9.18274 7.14715 9.00906 8.4176C8.9957 8.5181 9.04321 8.6156 9.13079 8.66659C9.1679 8.68759 9.20946 8.69809 9.25103 8.69809C9.30595 8.69809 9.35939 8.68009 9.40541 8.64259L9.41432 8.63509C10.2708 7.73963 10.5766 7.43964 11.3322 7.06165C11.4361 6.97615 11.4762 6.83366 11.4332 6.70616Z" fill="#3D3D3D"/>
<path d="M23.1947 22.1977C22.9824 21.8812 22.5564 21.8017 22.2446 22.0132C22.0398 22.1542 21.7978 22.2292 21.5455 22.2292C20.8537 22.2292 20.2911 21.6607 20.2911 20.9618V20.1608C20.8062 19.9538 21.1996 19.5173 21.3569 18.9653C21.4163 18.7508 21.3718 18.5243 21.2367 18.3444C21.0972 18.1584 20.876 18.0474 20.6459 18.0474H18.5706C18.3406 18.0474 18.1194 18.1584 17.9798 18.3444C17.8448 18.5243 17.8002 18.7508 17.8641 18.9818C18.017 19.5173 18.4103 19.9523 18.9254 20.1593V20.9603C18.9254 21.6592 18.3628 22.2277 17.6711 22.2277C17.4187 22.2277 17.1768 22.1527 16.9689 22.0117C16.6557 21.7972 16.2312 21.8827 16.0204 22.1962C15.8096 22.5127 15.8912 22.9417 16.203 23.1562C16.6379 23.4532 17.1456 23.6107 17.6711 23.6107C18.4118 23.6107 19.111 23.2957 19.6083 22.7437C20.1056 23.2957 20.8062 23.6107 21.547 23.6107C22.0724 23.6107 22.5801 23.4547 23.0136 23.1562C23.3253 22.9432 23.407 22.5127 23.1962 22.1962L23.1947 22.1977Z" fill="#3D3D3D"/>
<path d="M27.1487 16.645C26.0592 15.6926 24.3996 15.8096 23.451 16.912C23.2046 17.2 23.2358 17.6365 23.5193 17.887C23.6455 17.9965 23.8043 18.0565 23.9676 18.0565C24.1665 18.0565 24.355 17.9695 24.4842 17.818C24.9354 17.29 25.7311 17.233 26.2536 17.6905C26.3932 17.812 26.5683 17.872 26.7539 17.857C26.935 17.8435 27.0998 17.758 27.217 17.62C27.3373 17.4805 27.3952 17.302 27.3818 17.119C27.3684 16.9345 27.2853 16.7665 27.1473 16.6465L27.1487 16.645Z" fill="#3D3D3D"/>
<path d="M15.7605 16.9115C15.3033 16.379 14.665 16.0566 13.9658 16.0056C13.2711 15.9546 12.5897 16.1826 12.0628 16.6445C11.7777 16.8935 11.7481 17.3315 11.9945 17.6195C12.1132 17.759 12.2795 17.843 12.4606 17.8565C12.6387 17.8745 12.8198 17.8115 12.9579 17.69C13.2102 17.468 13.5294 17.363 13.8693 17.3825C14.2033 17.4065 14.5091 17.561 14.7273 17.816C14.858 17.9675 15.045 18.0545 15.2439 18.0545C15.4087 18.0545 15.5675 17.9945 15.6907 17.885C15.8288 17.7635 15.9119 17.597 15.9253 17.4125C15.9386 17.228 15.8793 17.0495 15.7605 16.91V16.9115Z" fill="#3D3D3D"/>
<path d="M23.8846 13.0354C23.7168 12.6995 23.3814 12.491 23.0088 12.491H22.5946C22.222 12.491 21.8865 12.6995 21.7188 13.0354C21.551 13.3729 21.5852 13.7689 21.8079 14.0719L22.0142 14.3524C22.2012 14.6074 22.4877 14.7514 22.8009 14.7514C23.1142 14.7514 23.4007 14.6059 23.5877 14.3524L23.794 14.0719C24.0167 13.7704 24.0508 13.3729 23.8831 13.0354H23.8846Z" fill="#3D3D3D"/>
<path d="M17.491 13.0354C17.3233 12.6995 16.9878 12.491 16.6152 12.491H16.2011C15.8285 12.491 15.493 12.6995 15.3252 13.0354C15.1575 13.3729 15.1916 13.7689 15.4143 14.0719L15.6206 14.3524C15.8077 14.6074 16.0942 14.7514 16.4074 14.7514C16.7206 14.7514 17.0071 14.6059 17.1941 14.3524L17.4005 14.0719C17.6232 13.7704 17.6573 13.3729 17.4896 13.0354H17.491Z" fill="#3D3D3D"/>
<path d="M38.3832 26.2546H35.2451C35.257 26.1541 35.2629 26.0506 35.2674 25.9381C37.1853 22.2933 36.2768 18.4489 35.6726 15.8945C35.3223 14.825 34.9126 13.7541 34.3233 12.2616L34.2624 12.1101C34.0932 11.6796 33.921 10.9147 33.8661 10.4722C33.3168 6.01134 32.3341 2.52846 31.1703 0.913013C30.7472 0.341532 30.2618 0.035543 29.7304 0.00254419C29.3979 -0.0154552 28.8828 0.065542 28.3736 0.605523C27.0629 1.99297 26.4424 2.96194 25.1583 5.32136C23.5002 4.97187 21.4739 4.97937 19.9806 4.98687H19.2265C17.7421 4.98237 15.7158 4.97187 14.0488 5.32136C12.7424 2.92444 12.1531 2.00347 10.832 0.605523C10.3258 0.065542 9.81661 -0.0169551 9.47965 0.00254419C8.94673 0.035543 8.45983 0.344532 8.0338 0.922012C6.87445 2.52846 5.89323 6.00984 5.34251 10.4722C5.28758 10.9132 5.11687 11.6766 4.94616 12.1101L4.88085 12.2751C4.28113 13.7931 3.88627 14.8295 3.51664 15.9635C2.92435 18.4879 2.03072 22.3023 3.94119 25.9366C3.94565 26.0491 3.95307 26.1541 3.96494 26.2531H0.828319C0.37111 26.2531 0 26.6281 0 27.0901C0 27.5521 0.37111 27.9271 0.828319 27.9271H4.49044C4.98179 28.8285 5.77003 29.541 6.71858 29.94C6.81359 29.979 6.91156 29.9985 7.0125 29.9985H11.7063C11.8058 29.9985 11.9052 29.979 12.0017 29.94C12.5153 29.7255 12.9814 29.4195 13.3867 29.031C13.406 29.04 13.4268 29.0475 13.449 29.0535C15.1205 29.532 17.3264 29.535 19.0988 29.538H20.368C22.1597 29.538 24.2023 29.5005 25.7669 29.0535C25.7892 29.0475 25.8085 29.04 25.8278 29.0325C26.2316 29.4195 26.6977 29.724 27.2128 29.9415C27.3078 29.9805 27.4058 30 27.5067 30H32.199C32.2985 30 32.3979 29.9805 32.4944 29.9415C33.443 29.544 34.2312 28.8315 34.7211 27.9301H38.3847C38.8419 27.9301 39.213 27.5551 39.213 27.0931C39.213 26.6311 38.8419 26.2561 38.3847 26.2561L38.3832 26.2546ZM29.0965 21.2103C26.6947 21.2103 24.6521 23.0222 24.4458 25.3337C24.3775 26.0956 24.5022 26.8636 24.805 27.5656C23.3621 27.8671 21.4888 27.8641 19.9776 27.8641H19.182C17.6856 27.8626 15.8316 27.8611 14.4065 27.5626C14.7093 26.8636 14.8325 26.0971 14.7643 25.3367C14.5579 23.0237 12.5138 21.2133 10.1135 21.2133H8.60383C7.03625 21.2133 5.55923 21.9978 4.69529 23.2772C4.13862 20.9928 4.59435 18.6379 5.10945 16.424C5.45087 15.3875 5.85761 14.3255 6.44842 12.8301C6.45287 12.8166 6.45732 12.8046 6.45732 12.8046C6.46771 12.7806 6.4885 12.7281 6.4885 12.7281C6.71562 12.1521 6.92047 11.2342 6.98875 10.6807C7.49643 6.55132 8.3871 3.27543 9.36831 1.91798C9.42027 1.84748 9.49449 1.75598 9.56723 1.69599C9.58504 1.71098 9.61028 1.73198 9.637 1.76198C10.8795 3.07594 11.4154 3.93541 12.8835 6.65031C12.9755 6.82281 13.1863 6.9758 13.3422 7.0448C13.5173 7.1228 13.7133 7.1348 13.8988 7.0823C15.3892 6.65781 17.5179 6.66381 19.2265 6.66231H19.9865C21.704 6.66231 23.8179 6.65631 25.3142 7.0823C25.5086 7.1378 25.7684 7.0883 25.9258 7.0208C26.098 6.9473 26.242 6.81531 26.3295 6.65031C27.7962 3.93841 28.3321 3.08044 29.5745 1.76348C29.6013 1.73498 29.625 1.71398 29.6443 1.69749C29.6829 1.72748 29.7497 1.78898 29.8403 1.91048C30.8244 3.27393 31.7151 6.55432 32.2243 10.6822C32.2925 11.2372 32.4974 12.1536 32.723 12.7296C32.7275 12.7416 32.7349 12.7581 32.7468 12.7851L32.7616 12.8211L32.7987 12.8136L32.7869 12.8241L32.7646 12.8301L32.7676 12.8391C33.3391 14.285 33.7592 15.3785 34.0828 16.352C34.6098 18.6034 35.0759 20.9883 34.5162 23.2772C33.6508 21.9978 32.1753 21.2118 30.6077 21.2118H29.0965V21.2103ZM10.9552 26.5381C10.6524 26.5381 10.4074 26.7856 10.4074 27.0916V28.4416H9.20206V27.0916C9.20206 26.7856 8.95564 26.5381 8.6543 26.5381C8.35295 26.5381 8.10654 26.7856 8.10654 27.0916V28.4416H7.17431C6.05355 27.9076 5.37813 26.7181 5.48947 25.4732C5.62603 23.9567 6.99321 22.7688 8.60531 22.7688H10.115C10.3169 22.7688 10.5143 22.7868 10.7058 22.8228C12.0492 23.0717 13.1121 24.1472 13.2308 25.4747C13.3422 26.7391 12.6816 27.9001 11.543 28.4416H11.5029V27.0916C11.5029 26.7856 11.2565 26.5381 10.9552 26.5381ZM31.1035 28.4416V27.0916C31.1035 26.7856 30.8586 26.5381 30.5558 26.5381C30.2529 26.5381 30.008 26.7856 30.008 27.0916V28.4416H28.8026V27.0916C28.8026 26.7856 28.5562 26.5381 28.2549 26.5381C27.9535 26.5381 27.7071 26.7856 27.7071 27.0916V28.4416H27.667C26.5299 27.9001 25.8694 26.7391 25.9807 25.4732C26.1173 23.9567 27.4844 22.7688 29.0965 22.7688H30.6077C32.2198 22.7688 33.5885 23.9567 33.7235 25.4747C33.8349 26.7391 33.1743 27.9016 32.0372 28.4431H31.105L31.1035 28.4416Z" fill="#3D3D3D"/>
</svg>
