<svg width="191" height="17" viewBox="0 0 191 17" fill="none" xmlns="http://www.w3.org/2000/svg">
<path d="M0.319504 14.2195L1.14782 12.7796C1.33189 12.4541 1.7223 12.4541 1.93012 12.6176C2.04443 12.6881 3.9074 14.0575 5.40223 14.0575C6.59869 14.0575 7.4953 13.267 7.4953 12.2681C7.4953 11.0831 6.50666 10.2701 4.5754 9.47967C2.41405 8.5962 0.252702 7.20275 0.252702 4.46084C0.252702 2.39242 1.7698 0 5.42598 0C7.7714 0 9.56461 1.20896 10.0248 1.55695C10.2549 1.69644 10.3232 2.09093 10.1628 2.32342L9.2885 3.64787C9.10443 3.92686 8.76004 4.11286 8.48393 3.92686C8.29986 3.81137 6.55268 2.64891 5.28793 2.64891C4.02319 2.64891 3.26464 3.53238 3.26464 4.27485C3.26464 5.36681 4.11522 6.11079 5.9782 6.87726C8.20931 7.78323 10.7848 9.13168 10.7848 12.1286C10.7848 14.5225 8.73777 16.7289 5.49575 16.7289C2.59812 16.7289 0.896953 15.358 0.436776 14.917C0.230439 14.7085 0.114649 14.5915 0.322471 14.2195H0.319504Z" fill="#3D3D3D"/>
<path d="M15.749 0.673162C15.749 0.44067 15.9554 0.232178 16.1854 0.232178H18.3705C18.6229 0.232178 18.807 0.44067 18.807 0.673162V10.1768C18.807 12.1523 20.14 13.7092 22.141 13.7092C24.1421 13.7092 25.4988 12.1523 25.4988 10.2008V0.673162C25.4988 0.44067 25.6829 0.232178 25.9353 0.232178H28.1204C28.3504 0.232178 28.5568 0.44067 28.5568 0.673162V10.3388C28.5568 13.8712 25.7749 16.7286 22.141 16.7286C18.5071 16.7286 15.749 13.8712 15.749 10.3388V0.673162Z" fill="#3D3D3D"/>
<path d="M34.7661 0.790159C34.7661 0.488669 34.9962 0.232178 35.3183 0.232178H37.3416C37.64 0.232178 37.8938 0.487169 37.8938 0.790159V7.06294L43.6891 0.46467C43.7811 0.349174 43.9192 0.232178 44.1255 0.232178H46.4249C46.8613 0.232178 47.0914 0.719661 46.7931 1.06915L40.7915 7.89991L47.2295 15.6831C47.4596 15.9846 47.2755 16.4961 46.8153 16.4961H44.3096C44.0795 16.4961 43.9414 16.4031 43.8954 16.3341L37.8938 8.85238V15.9396C37.8938 16.2411 37.6415 16.4976 37.3416 16.4976H35.3183C34.9962 16.4976 34.7661 16.2426 34.7661 15.9396V0.790159Z" fill="#3D3D3D"/>
<path d="M58.7267 0C63.3255 0 67.0054 3.74087 67.0054 8.38771C67.0054 13.0345 63.3269 16.7289 58.7267 16.7289C54.1264 16.7289 50.4717 13.0345 50.4717 8.38771C50.4717 3.74087 54.1279 0 58.7267 0ZM58.7267 13.708C61.6243 13.708 64.0157 11.3156 64.0157 8.38771C64.0157 5.45981 61.6243 3.0209 58.7267 3.0209C55.829 3.0209 53.4613 5.45981 53.4613 8.38771C53.4613 11.3156 55.8305 13.708 58.7267 13.708Z" fill="#3D3D3D"/>
<path d="M71.3283 14.2195L72.1566 12.7796C72.3407 12.4541 72.7311 12.4541 72.9389 12.6176C73.0532 12.6881 74.9162 14.0575 76.411 14.0575C77.6075 14.0575 78.5041 13.267 78.5041 12.2681C78.5041 11.0831 77.5154 10.2701 75.5842 9.47967C73.4228 8.5962 71.2615 7.20275 71.2615 4.46084C71.2615 2.39242 72.7786 0 76.4348 0C78.7802 0 80.5734 1.20896 81.0336 1.55695C81.2637 1.69644 81.3319 2.09093 81.1716 2.32342L80.2973 3.64787C80.1132 3.92686 79.7688 4.11286 79.4927 3.92686C79.3087 3.81137 77.5615 2.64891 76.2967 2.64891C75.032 2.64891 74.2734 3.53238 74.2734 4.27485C74.2734 5.36681 75.124 6.11079 76.987 6.87726C79.2181 7.78323 81.7936 9.13168 81.7936 12.1286C81.7936 14.5225 79.7466 16.7289 76.5045 16.7289C73.6069 16.7289 71.9057 15.358 71.4456 14.917C71.2392 14.7085 71.1234 14.5915 71.3313 14.2195H71.3283Z" fill="#3D3D3D"/>
<path d="M86.9873 0.673162C86.9873 0.44067 87.1936 0.232178 87.4237 0.232178H89.5628C89.8152 0.232178 89.9992 0.44067 89.9992 0.673162V6.83045H97.4957V0.673162C97.4957 0.44067 97.6797 0.232178 97.9321 0.232178H100.047C100.278 0.232178 100.484 0.44067 100.484 0.673162V16.0551C100.484 16.2876 100.278 16.4961 100.047 16.4961H97.9321C97.6797 16.4961 97.4957 16.2876 97.4957 16.0551V9.64285H89.9992V16.0551C89.9992 16.2876 89.8152 16.4961 89.5628 16.4961H87.4237C87.1936 16.4961 86.9873 16.2876 86.9873 16.0551V0.673162Z" fill="#3D3D3D"/>
<path d="M106.923 0.673162C106.923 0.44067 107.13 0.232178 107.36 0.232178H109.499C109.729 0.232178 109.935 0.44067 109.935 0.673162V16.0551C109.935 16.2876 109.729 16.4961 109.499 16.4961H107.36C107.13 16.4961 106.923 16.2876 106.923 16.0551V0.673162Z" fill="#3D3D3D"/>
<path d="M125.388 0.349209C125.412 0.163215 125.549 0.0012207 125.803 0.0012207H126.171C126.355 0.0012207 126.493 0.0942179 126.561 0.233713L131.62 11.2013H131.69L136.749 0.233713C136.817 0.0942179 136.933 0.0012207 137.139 0.0012207H137.507C137.76 0.0012207 137.898 0.163215 137.921 0.349209L140.635 15.9637C140.705 16.2892 140.521 16.4976 140.221 16.4976H138.128C137.921 16.4976 137.737 16.3117 137.691 16.1497L136.335 7.34346H136.265L132.241 16.4751C132.195 16.6146 132.056 16.7301 131.85 16.7301H131.436C131.23 16.7301 131.114 16.6146 131.046 16.4751L126.975 7.34346H126.905L125.572 16.1497C125.55 16.3117 125.366 16.4976 125.158 16.4976H123.089C122.791 16.4976 122.607 16.2892 122.653 15.9637L125.388 0.349209Z" fill="#3D3D3D"/>
<path d="M143.946 15.8932L151.098 0.256212C151.167 0.116717 151.282 0.0012207 151.488 0.0012207H151.718C151.948 0.0012207 152.04 0.116717 152.108 0.256212L159.191 15.8932C159.329 16.1947 159.145 16.4976 158.8 16.4976H156.799C156.455 16.4976 156.293 16.3582 156.133 16.0327L155.006 13.5232H148.13L147.003 16.0327C146.911 16.2652 146.705 16.4976 146.337 16.4976H144.336C143.992 16.4976 143.807 16.1962 143.946 15.8932ZM153.879 10.9448L151.58 5.83302H151.512L149.258 10.9448H153.881H153.879Z" fill="#3D3D3D"/>
<path d="M163.537 0.673162C163.537 0.44067 163.721 0.232178 163.974 0.232178H170.55C173.309 0.232178 175.563 2.4626 175.563 5.2285C175.563 7.36593 174.16 9.10887 172.159 9.92184L175.309 15.8241C175.469 16.1256 175.309 16.4976 174.918 16.4976H172.505C172.298 16.4976 172.182 16.3821 172.136 16.2891L169.079 10.1318H166.527V16.0566C166.527 16.2891 166.32 16.4976 166.09 16.4976H163.975C163.723 16.4976 163.539 16.2891 163.539 16.0566V0.673162H163.537ZM170.297 7.64342C171.516 7.64342 172.574 6.57396 172.574 5.2735C172.574 4.04205 171.516 3.01908 170.297 3.01908H166.549V7.64342H170.297Z" fill="#3D3D3D"/>
<path d="M183.267 3.0203H179.748C179.496 3.0203 179.312 2.81181 179.312 2.57932V0.674383C179.312 0.441891 179.496 0.233398 179.748 0.233398H189.797C190.049 0.233398 190.233 0.441891 190.233 0.674383V2.57932C190.233 2.81181 190.049 3.0203 189.797 3.0203H186.279V16.0548C186.279 16.2873 186.072 16.4958 185.842 16.4958H183.703C183.473 16.4958 183.267 16.2873 183.267 16.0548V3.0203Z" fill="#3D3D3D"/>
</svg>
